<svg width="93" height="96" viewBox="0 0 93 96" fill="none" xmlns="http://www.w3.org/2000/svg">
<path d="M40.3587 58.9888C40.3643 58.9888 40.3643 58.9944 40.3699 58.9944C40.6335 59.129 40.6896 59.3589 40.5157 59.7009C40.2689 60.2 40.1456 60.4467 39.8932 60.9457C39.7698 61.1924 39.6688 61.3382 39.5847 61.3887C39.5006 61.4391 39.3491 61.4167 39.136 61.3046C39.1024 61.2877 39.0575 61.2653 39.0014 61.2373C38.9453 61.2092 38.8836 61.1756 38.8163 61.142C38.7546 61.1083 38.6929 61.0803 38.6368 61.0579C38.5807 61.0354 38.5415 61.0186 38.5247 61.0074C38.3732 60.9513 38.2498 60.9513 38.1489 61.013C38.0479 61.0691 37.9301 61.198 37.8011 61.3887C36.786 62.9306 36.2756 63.7044 35.2604 65.2464C35.0697 65.5323 34.98 65.7061 34.98 65.7734C34.9912 65.88 35.21 66.0594 35.6362 66.2949C36.0793 66.536 36.2139 66.8107 36.0344 67.1472C34.9351 69.1713 34.3855 70.1806 33.2862 72.2048C33.1011 72.5412 32.7141 72.5692 32.1364 72.2496C29.0965 70.5899 27.6888 69.4965 25.3836 66.7995C24.9461 66.2837 24.8901 65.8912 25.1929 65.6557C27.0157 64.2203 27.9299 63.5026 29.7527 62.0615C30.0556 61.8204 30.3585 61.9045 30.6838 62.2858C31.0091 62.6671 31.2054 62.8409 31.2615 62.8409C31.34 62.8409 31.5195 62.7119 31.7999 62.4484C33.1796 61.1644 33.8639 60.5196 35.2436 59.2355C35.5353 58.9608 35.6082 58.7309 35.4623 58.529C34.5537 57.5086 34.1611 56.9198 33.5498 55.5965C33.4152 55.3722 33.174 55.3386 32.8151 55.5012C31.11 56.2862 30.2631 56.6843 28.5581 57.4693C28.2104 57.6319 28.0197 57.7497 27.9916 57.8226C27.9692 57.873 28.0589 58.1534 28.2889 58.6244C28.5188 59.101 28.4796 59.4206 28.1487 59.6112C26.1408 60.7663 25.1368 61.3438 23.1233 62.4989C22.7868 62.6895 22.4503 62.4821 22.1362 61.8372C20.4929 58.4618 19.9264 56.5105 19.5843 52.0977C19.517 51.2566 19.7021 50.8081 20.0834 50.7912C22.3662 50.6847 23.5103 50.6286 25.793 50.5221C26.1744 50.5053 26.3651 50.8305 26.4156 51.4697C26.4661 52.0865 26.5502 52.4229 26.6399 52.4958C26.696 52.5294 26.8979 52.5182 27.2289 52.4678C29.0573 52.1818 29.9715 52.036 31.7999 51.7501C32.0299 51.7164 32.1869 51.6547 32.2822 51.5706C32.3776 51.4865 32.4225 51.3519 32.4337 51.1501C32.4281 51.1221 32.4281 51.066 32.4281 50.9931C32.4281 50.9146 32.4281 50.8305 32.4169 50.7408C32.4112 50.6511 32.4056 50.5613 32.4 50.4772C32.3944 50.3931 32.3944 50.3258 32.3888 50.281C32.3776 49.967 32.4169 49.7707 32.4954 49.7035C32.5795 49.6306 32.7534 49.5969 33.0282 49.5969C33.5834 49.5969 33.8583 49.5969 34.4135 49.5969C34.7669 49.5969 34.9407 49.7876 34.952 50.152C35.1483 55.3947 36.7748 57.1665 40.3587 58.9888Z" fill="#EFB515"/>
<path d="M42.8041 75.4456C40.1175 75.1989 38.205 74.0663 37.33 72.5468C36.556 71.1954 36.6514 69.6927 37.3581 68.1003C38.3172 65.936 39.9268 64.2538 41.5646 62.6502C43.3257 60.9288 44.4755 60.0261 45.7767 60.0037C47.0666 59.9756 48.2445 60.8391 50.0729 62.4764C51.7442 63.9735 53.3988 65.5827 54.4532 67.7246C55.2216 69.2834 55.3674 70.7805 54.6607 72.1655C53.8699 73.7186 52.0191 74.9466 49.3213 75.3111C46.7357 75.6587 45.4065 75.6811 42.8041 75.4456ZM48.1323 65.7565C48.0369 65.2912 47.8855 64.8594 47.7116 64.4893C47.5378 64.1193 47.3471 63.8053 47.1396 63.5473C46.932 63.2894 46.7189 63.0988 46.4946 62.9642C46.2702 62.8296 46.0515 62.768 45.8215 62.768C45.5916 62.7736 45.3728 62.8465 45.1541 62.9866C44.9354 63.1324 44.7278 63.3343 44.5315 63.5978C44.3296 63.8613 44.1558 64.1809 43.9987 64.5622C43.8417 64.9379 43.7239 65.3697 43.651 65.8519C43.5276 66.6649 43.6678 67.3434 44.1445 67.8424C44.5876 68.3022 45.2102 68.5433 45.9337 68.5321C46.6572 68.5152 47.2742 68.2517 47.6948 67.7751C48.1491 67.248 48.2893 66.5359 48.1323 65.7565Z" fill="#EFB515"/>
<path d="M64.661 67.7976C63.8814 68.6106 63.5 69.2779 63.5673 69.9059C63.5785 69.9507 63.6178 70.0348 63.6907 70.1526C63.7636 70.2703 63.8253 70.4105 63.8814 70.5675C63.9375 70.7245 63.9599 70.8871 63.9487 71.0497C63.9375 71.2123 63.8589 71.3469 63.7187 71.459C62.3558 72.5524 61.6267 73.0346 60.1124 73.8869C59.5571 74.1953 59.2318 74.2682 59.1533 74.1224C57.7343 71.56 57.022 70.2815 55.603 67.7191C55.317 67.3939 55.2385 67.1247 55.3562 66.9173C55.474 66.7098 55.6479 66.4967 55.8835 66.2669C56.3434 65.8407 56.5845 65.437 56.6294 65.0894C56.6743 64.7417 56.6574 64.3268 56.5845 63.8558C56.5565 63.6876 56.506 63.4521 56.4275 63.1549C56.349 62.8577 56.2536 62.555 56.1415 62.2466C56.0293 61.9438 55.9171 61.6578 55.8105 61.3887C55.704 61.1251 55.6198 60.9401 55.5638 60.8448C55.4572 60.6597 55.345 60.4691 55.2497 60.2897C55.1543 60.1103 55.0534 59.9645 54.9468 59.8579C54.8402 59.7514 54.7225 59.7065 54.5879 59.7234C54.4533 59.7402 54.2906 59.8523 54.0775 60.0486C53.8083 60.256 53.668 60.357 53.3876 60.5476C53.2418 60.6429 53.1689 60.6934 53.023 60.7831C52.7594 60.9513 52.5183 60.8616 52.322 60.542C51.9967 60.0149 51.834 59.7514 51.5087 59.2187C51.3629 58.9888 51.3068 58.8318 51.3292 58.7589C51.3517 58.686 51.447 58.5963 51.6209 58.4842C54.6496 56.5441 55.9451 54.89 56.1583 50.2081C56.1583 50.2025 56.1583 50.1969 56.1583 50.1913C56.1751 49.8044 56.3602 49.5969 56.736 49.5969C57.28 49.5969 57.5548 49.5969 58.1045 49.5969C58.3737 49.5969 58.5476 49.6306 58.6261 49.7035C58.7046 49.7764 58.7439 49.9726 58.7326 50.2866C58.7326 50.3315 58.727 50.3987 58.7214 50.4828C58.7158 50.567 58.7102 50.6567 58.7046 50.7464C58.699 50.8361 58.6934 50.9202 58.6934 50.9987C58.6934 51.0772 58.6934 51.1277 58.6878 51.1613C58.6934 51.3632 58.7439 51.4977 58.8336 51.5818C58.9233 51.6659 59.0804 51.7276 59.3103 51.7613C61.1051 52.0416 61.9969 52.1874 63.7916 52.4678C64.0945 52.5182 64.3132 52.5294 64.3749 52.4958C64.4591 52.4509 64.4983 52.0192 64.5993 51.4697C64.6329 51.2903 64.7058 51.094 64.7563 50.9258C64.8068 50.7576 64.8741 50.6174 64.9582 50.5053C65.0424 50.3931 65.1489 50.3146 65.2779 50.2754C65.4069 50.2305 65.5752 50.2361 65.7883 50.2922C68.7553 50.3931 70.236 50.4436 73.2029 50.5501C73.3656 50.5557 73.4385 50.9819 73.3936 51.7949C73.259 54.0265 73.102 55.0863 72.6365 57.0768C72.5804 57.3123 72.485 57.4693 72.3448 57.5478C72.2046 57.6319 72.0532 57.6824 71.8961 57.7104C71.7335 57.7384 71.5877 57.7441 71.453 57.7272C71.3184 57.716 71.2231 57.716 71.1782 57.7272C70.5781 57.9796 70.1126 58.7085 69.6751 59.8579C68.2393 63.5867 67.1793 65.1735 64.661 67.7976ZM60.8583 61.5288C60.9144 61.456 61.0658 61.2597 61.3014 60.9177C61.537 60.5756 61.7894 60.1944 62.0361 59.7682C62.2885 59.3421 62.5017 58.9272 62.6811 58.5347C62.8606 58.1422 62.9616 57.8954 63.0008 57.8057C63.1242 57.4469 63.0008 57.1777 62.6419 57.0207C60.9368 56.2806 60.0843 55.9105 58.3849 55.1704C58.026 55.0134 57.7848 55.0582 57.6558 55.2881C57.6277 55.3498 57.5885 55.4395 57.5212 55.5629C57.4595 55.6862 57.3922 55.8096 57.3249 55.9442C57.2576 56.0787 57.1903 56.2021 57.1174 56.3142C57.0501 56.4264 56.994 56.5105 56.9659 56.5666C56.8706 56.7292 56.8089 56.8581 56.7808 56.9534C56.7528 57.0488 56.7472 57.1329 56.764 57.2058C56.7808 57.2787 56.8145 57.3403 56.8538 57.3852C56.8986 57.4301 56.9659 57.4861 57.0108 57.5422C57.0276 57.5646 57.1117 57.6712 57.2688 57.8562C57.4258 58.0412 57.6109 58.2655 57.8297 58.5403C58.0484 58.815 58.2783 59.1122 58.5139 59.4486C58.7495 59.7794 58.9682 60.0934 59.1701 60.385C59.3664 60.6766 59.5347 60.9289 59.6749 61.1364C59.8151 61.3494 59.888 61.4728 59.9105 61.512C60.0338 61.6634 60.1741 61.7587 60.3199 61.8036C60.4713 61.8428 60.6508 61.7587 60.8583 61.5288Z" fill="#EFB515"/>
<path d="M16.04 63.2382C15.7953 63.3555 15.6271 63.3707 15.5506 63.33C15.4894 63.2943 15.3773 63.1312 15.255 62.8255C15.1377 62.5299 15.0714 62.377 15.0511 62.3719C14.995 62.3006 14.8573 62.2343 14.6432 62.163C13.5167 61.8215 12.3443 60.9603 11.233 59.4263C10.9068 58.9779 10.7436 58.7384 10.7283 58.7435C10.6774 58.7587 10.5499 58.9371 10.3613 59.2938C9.45906 60.8023 9.24497 62.2496 9.67316 63.4676C9.82608 63.9007 10.0606 64.2982 10.3766 64.6499C10.7131 65.027 10.8966 65.2257 10.9068 65.2563C10.917 65.2869 10.7283 65.3939 10.3358 65.5723C7.9451 66.6781 6.75227 67.2285 4.36153 68.3344C3.95373 68.5229 3.65298 68.3904 3.46946 67.9318C2.68444 65.9902 2.34291 64.976 1.76689 62.8611C1.65474 62.4382 1.62416 62.1426 1.67004 61.9795C1.71591 61.8113 1.87903 61.6686 2.1543 61.5463C4.2137 60.6851 5.2485 60.2672 7.3232 59.4671C7.65963 59.3193 8.05214 58.9014 8.49563 58.2389C8.9748 57.5204 9.18379 56.9394 9.10733 56.4859C9.08694 56.3636 9.05126 56.2718 9.00028 56.2056C8.73521 55.7775 8.60268 55.5584 8.3478 55.1099C8.18978 54.8398 8.03175 54.7124 7.87373 54.7379C7.60866 54.7787 7.44554 55.166 7.40476 55.8947C7.36907 56.491 7.42515 56.9904 7.5271 57.3726C7.62905 57.7599 7.70551 58.0402 7.76158 58.2084C7.81766 58.3765 7.83805 58.4173 7.82275 58.3511C7.84824 58.4734 7.80746 58.5702 7.69532 58.6364C7.41495 58.7078 7.27222 58.7435 6.99186 58.8148C5.14655 59.2836 4.2188 59.5181 2.3735 59.9818C1.81277 60.1245 1.42536 60.1347 1.26223 60.0022C1.10931 59.8799 0.94109 59.3601 0.783066 58.4632C0.293704 55.6705 0.130583 54.2079 0.0082419 51.1502C-0.0223433 50.1361 0.0337296 49.5296 0.150973 49.3666C0.293704 49.1729 0.655628 49.0761 1.23165 49.0761C3.26556 49.0608 4.27997 49.0557 6.31389 49.0404C6.71659 49.0353 7.08871 49.1576 7.44044 49.3921C9.33162 50.1921 10.2849 50.5336 12.1964 51.1145C12.4972 51.2165 12.6552 51.2521 12.6654 51.2369C12.7011 51.2012 12.7215 51.1298 12.7164 51.0279C12.6858 50.452 12.6756 50.1565 12.6654 49.5704C12.6603 49.0302 12.8489 48.7601 13.2261 48.7601C13.7971 48.7601 14.0825 48.7601 14.6534 48.7601C14.8828 48.7601 15.0358 48.7958 15.1173 48.8672C15.1989 48.9385 15.2397 49.1118 15.2397 49.387C15.2804 52.2 15.4232 53.525 15.9176 56.017C15.989 56.3839 15.8463 56.6133 15.4843 56.705C14.9185 56.8477 14.6382 56.919 14.0774 57.0617C13.8174 57.128 13.6492 57.1229 13.5779 57.0464C13.5065 56.97 13.4351 56.7713 13.374 56.4451C13.3332 56.2413 13.3179 56.1393 13.2771 55.9355C13.2312 55.6705 13.1905 55.5176 13.1548 55.4768C13.1191 55.4361 12.9916 55.3953 12.7674 55.3596C12.1404 55.2577 11.8243 55.1965 11.1973 55.0742C10.7029 54.957 10.4786 54.8857 10.5193 54.8806C10.4939 54.8857 10.4837 54.9112 10.4888 54.9621C10.4888 54.9774 10.5703 55.1711 10.7334 55.5227C11.5745 57.449 12.5991 58.7282 13.6543 59.4926C13.9194 59.6964 14.0825 59.7831 14.1335 59.7627C14.159 59.7525 14.1029 59.5283 13.9806 59.0747C13.8582 58.6212 13.9806 58.3409 14.3425 58.2338C14.8675 58.081 15.1326 58.0045 15.6628 57.8465C15.9227 57.7701 16.096 57.7548 16.1929 57.7905C16.2847 57.8313 16.3662 57.9943 16.4478 58.2746C16.8556 59.778 17.1054 60.5016 17.6712 61.8776C17.8088 62.2088 17.7069 62.4534 17.3653 62.6165C16.8301 62.8662 16.565 62.9885 16.04 63.2382Z" fill="#EFB515"/>
<path d="M14.7811 72.0954C14.3478 71.4889 14.1032 70.9436 14.0267 70.4799C13.9553 70.0161 14.0267 69.5779 14.2459 69.1702C15.0258 67.9675 15.4336 67.3814 16.2798 66.245C16.3716 66.1278 16.4429 66.0411 16.499 65.9851C16.5551 65.929 16.5857 65.8934 16.5908 65.873C16.6111 65.7965 16.5653 65.6538 16.4582 65.4449C16.3767 65.2869 16.3359 65.2105 16.2594 65.0474C16.0657 64.655 16.1422 64.3696 16.4786 64.1963C16.9731 63.9466 17.2177 63.8192 17.7122 63.5695C17.9518 63.4472 18.1251 63.3912 18.222 63.4115C18.3188 63.4268 18.4259 63.5542 18.538 63.7887C19.5065 65.7354 20.0724 66.6323 21.3315 68.2885C21.5354 68.5586 21.4895 68.8083 21.1938 69.0428C20.735 69.4097 20.5057 69.5932 20.0418 69.955C19.8277 70.1231 19.6748 70.1945 19.583 70.1639C19.4912 70.1333 19.3587 70.0059 19.1854 69.7817C19.114 69.6849 19.0783 69.6339 19.0019 69.5371C18.8031 69.267 18.6705 69.1498 18.6043 69.1957C18.6349 69.1702 18.5329 69.2874 18.3035 69.5422C18.0996 69.848 17.9977 69.9957 17.7989 70.3066C17.6918 70.4391 17.595 70.5563 17.5083 70.6531C17.4216 70.7551 17.3605 70.8621 17.3299 70.9742C17.2993 71.0914 17.2891 71.2188 17.3095 71.3564C17.3299 71.494 17.4064 71.6724 17.5338 71.8813C18.0894 72.5897 18.38 72.9311 18.9815 73.5936C19.2007 73.8178 19.3893 73.9503 19.5422 73.9911C19.6951 74.0319 19.899 74.0115 20.1539 73.9249C20.6739 73.6752 20.9287 73.5478 21.4436 73.2879C21.571 73.2012 21.6679 73.1401 21.7342 73.1044C21.8004 73.0687 21.8412 73.0432 21.8514 73.033C21.9075 72.977 21.7902 72.8037 21.5099 72.5081C21.2346 72.2228 21.2397 71.9425 21.5252 71.6877C21.933 71.3156 22.142 71.1271 22.5498 70.7551C22.7486 70.5716 22.9015 70.4748 22.9983 70.4595C23.0952 70.4442 23.2328 70.5308 23.4112 70.7194C24.5327 71.8864 25.1291 72.4266 26.3882 73.4153C26.6431 73.6191 26.6584 73.8637 26.4239 74.1593C26.0569 74.6179 25.8734 74.8473 25.5114 75.3059C25.3432 75.52 25.2107 75.6219 25.1138 75.6168C25.017 75.6117 24.8589 75.5251 24.6448 75.3569C24.4919 75.2346 24.3849 75.1683 24.3186 75.1632C24.2574 75.1581 24.1096 75.2244 23.8802 75.3722C21.6169 76.8093 20.4343 77.4769 17.9875 78.6847C16.6723 79.3319 15.9994 79.6376 14.6333 80.2084C14.251 80.346 13.8789 80.453 13.5169 80.5295C13.155 80.6059 12.7982 80.6314 12.4516 80.6008C12.1049 80.5702 11.7583 80.4683 11.4219 80.295C11.0803 80.1218 10.749 79.8466 10.4278 79.4695C9.63772 78.5369 9.25541 78.0527 8.52646 77.0539C8.2308 76.6462 8.0371 76.2538 7.94534 75.8767C7.85359 75.4996 7.8281 75.1326 7.87398 74.7759C7.91985 74.4192 8.02181 74.0727 8.17983 73.7363C8.33785 73.3949 8.52136 73.0534 8.74056 72.7018C9.60714 71.4838 10.0506 70.8927 10.9733 69.7358C11.1925 69.5473 11.3862 69.3944 11.5442 69.2721C11.7022 69.1498 11.8551 69.0886 11.9979 69.0784C12.1406 69.0682 12.2833 69.1345 12.4312 69.2721C12.579 69.4097 12.7472 69.639 12.946 69.9703C13.3589 70.6582 13.573 70.9946 14.0216 71.6469C14.2969 72.0495 14.4447 72.2788 14.46 72.3451C14.4651 72.3807 14.4498 72.4266 14.4141 72.4929C14.3784 72.5591 14.3071 72.6712 14.2 72.8241C14.0573 73.033 14.0471 73.2828 14.1949 73.5732C14.3427 73.8586 14.5212 74.1593 14.7302 74.46C14.9188 74.6842 15.0156 74.7963 15.2144 75.0205C15.4693 75.2855 15.7191 75.5149 15.9689 75.7136C16.2186 75.9124 16.4633 75.9531 16.6978 75.8512C16.866 75.7748 17.0495 75.6983 17.2381 75.6117C17.4267 75.5251 17.5338 75.4843 17.5644 75.4996C16.3716 74.2153 15.8108 73.5376 14.7811 72.0954Z" fill="#EFB515"/>
<path d="M39.2593 79.3522C39.2644 79.3522 39.2695 79.3523 39.2746 79.3573C39.6416 79.4338 39.7843 79.6529 39.7028 80.0198C39.5855 80.5498 39.5244 80.8148 39.4071 81.3499C39.3511 81.6098 39.2848 81.7729 39.2083 81.8392C39.1319 81.9054 38.9687 81.9156 38.7088 81.8595C38.668 81.8494 38.617 81.8392 38.5456 81.8239C38.4743 81.8086 38.4029 81.7933 38.3265 81.7729C38.25 81.7576 38.1786 81.7423 38.1124 81.7372C38.0461 81.727 38.0002 81.722 37.9747 81.7169C37.8014 81.7016 37.674 81.7372 37.5924 81.8188C37.5108 81.9003 37.4344 82.0532 37.3732 82.2723C36.8889 84.0101 36.6494 84.8816 36.1651 86.6193C36.0733 86.9404 36.0377 87.134 36.053 87.1901C36.0886 87.2818 36.318 87.3787 36.736 87.4755C37.1693 87.5723 37.3426 87.8016 37.256 88.1635C36.7309 90.3548 36.471 91.4505 35.9459 93.6367C35.8592 93.9985 35.5687 94.131 35.0793 94.0189C32.5051 93.438 31.2358 93.0608 28.7737 92.1435C28.3047 91.9703 28.1467 91.7053 28.2945 91.3587C29.1917 89.2795 29.6403 88.2399 30.5374 86.1607C30.6853 85.8141 30.9605 85.7224 31.3632 85.8702C31.7659 86.018 31.9902 86.074 32.031 86.0486C32.0922 86.0129 32.1941 85.8192 32.3318 85.4727C32.9995 83.7655 33.336 82.9094 34.0037 81.2021C34.1465 80.8403 34.0955 80.6059 33.861 80.4887C32.4898 79.9893 31.822 79.7039 30.5119 79.0669C30.2673 78.9751 30.0481 79.1025 29.8595 79.444C28.9725 81.0595 28.529 81.8697 27.642 83.4852C27.4585 83.8165 27.377 84.0152 27.3923 84.0815C27.4024 84.1324 27.5962 84.2496 27.9836 84.4382C28.371 84.6217 28.478 84.8816 28.3098 85.2179C27.2903 87.2462 26.7754 88.2603 25.7559 90.2835C25.5877 90.6198 25.2717 90.6861 24.8231 90.472C22.4527 89.3356 21.3058 88.6884 19.119 87.2156C18.701 86.9353 18.6092 86.6397 18.8386 86.334C20.1996 84.4993 20.8776 83.582 22.2386 81.7474C22.4629 81.4417 22.7586 81.4213 23.1256 81.6659C23.4824 81.9054 23.7118 82.0022 23.8087 81.9717C23.8648 81.9462 23.9871 81.7882 24.1808 81.513C25.2258 79.9944 25.7457 79.235 26.7907 77.7164C26.9233 77.5278 26.9895 77.3749 26.9997 77.2577C27.0099 77.1405 26.9488 77.0284 26.8213 76.9112C26.8009 76.8959 26.7653 76.8704 26.7143 76.8297C26.6633 76.7889 26.6072 76.743 26.541 76.7023C26.4747 76.6564 26.4135 76.6156 26.3575 76.5749C26.2963 76.5341 26.2504 76.5035 26.2198 76.478C26.0057 76.3302 25.8987 76.2028 25.9038 76.106C25.9038 76.0092 25.9904 75.8512 26.1536 75.6372C26.49 75.1989 26.6582 74.9798 26.9946 74.5415C27.2087 74.2612 27.4585 74.2255 27.744 74.4243C31.8883 77.3036 34.3147 78.2923 39.2593 79.3522Z" fill="#EFB515"/>
<path d="M43.5359 95.2114C41.4867 95.0942 39.9778 94.3094 39.1367 93.015C38.3874 91.8582 38.2345 90.421 38.576 88.7495C39.0399 86.4766 40.141 84.5146 41.5989 82.7412C43.1689 80.8403 44.6115 79.9179 46.2631 79.9332C47.8994 79.9485 49.3063 80.9066 50.8254 82.8329C52.2068 84.5962 53.2467 86.5684 53.6443 88.8769C53.9349 90.5586 53.7361 91.9856 52.9612 93.1271C52.0947 94.4113 50.5705 95.1808 48.506 95.2573C46.5129 95.3337 45.5189 95.3235 43.5359 95.2114ZM48.3225 85.7581C48.2817 85.2892 48.1798 84.851 48.0472 84.4688C47.9147 84.0866 47.7516 83.7655 47.5579 83.4954C47.3642 83.2253 47.1501 83.0215 46.9207 82.8788C46.6913 82.7361 46.4517 82.6596 46.2019 82.6596C45.9521 82.6545 45.7126 82.7259 45.4781 82.8635C45.2436 83.0011 45.0244 83.2049 44.8205 83.4699C44.6166 83.7349 44.4433 84.056 44.3005 84.4331C44.1578 84.8102 44.061 85.2383 44.01 85.7173C43.9233 86.5225 44.0864 87.185 44.5248 87.664C44.9326 88.1074 45.4781 88.3418 46.1204 88.3469C46.7626 88.352 47.3183 88.1329 47.7312 87.6946C48.1849 87.2207 48.3888 86.5378 48.3225 85.7581Z" fill="#EFB515"/>
<path d="M60.985 80.3765C60.7811 80.1574 60.6536 80.0402 60.5975 80.0351C60.5568 80.0402 60.4446 80.0605 60.2662 80.1064C60.2611 80.1115 60.256 80.1115 60.2458 80.1115C59.94 80.2338 59.787 80.2899 59.4761 80.4071C59.1957 80.509 59.0377 80.5956 59.002 80.6415C58.9714 80.6823 58.951 80.8504 58.9612 81.146C59.0734 83.1284 59.0887 84.1273 59.0377 86.13C59.053 86.2676 59.0632 86.3543 59.0785 86.3899C59.1447 86.5938 59.3843 86.6244 59.7717 86.5122C60.3172 86.3543 60.6689 86.3237 60.7861 86.4103C60.8524 86.4562 61.0002 86.7772 61.2194 87.3633C61.8108 88.9635 62.1064 89.7687 62.6977 91.3689C62.9016 91.9091 62.9628 92.2811 62.8761 92.4492C62.7946 92.6021 62.3817 92.8111 61.6629 93.0302C59.9196 93.5704 59.0275 93.7997 57.2383 94.1768C56.4838 94.3348 56.0251 94.3552 55.8823 94.2635C55.7141 94.1514 55.5714 93.8048 55.4643 93.2442C55.082 91.2517 54.8883 90.2528 54.506 88.2602C54.4397 87.9188 54.4652 87.4958 54.5774 86.9862C55.0769 85.07 55.2757 84.112 55.5663 82.1958C55.602 82.0226 55.6275 81.89 55.6478 81.8034C55.6631 81.7168 55.6631 81.6607 55.6427 81.6301C55.6224 81.5996 55.5714 81.5945 55.4949 81.6149C55.4185 81.6352 55.2961 81.6607 55.133 81.7015C54.9495 81.7423 54.8577 81.7626 54.6742 81.8034C54.3429 81.8748 54.1339 81.727 54.0523 81.3651C53.9249 80.8046 53.8637 80.5243 53.7363 79.9637C53.6802 79.7038 53.6802 79.5407 53.7363 79.4745C53.7974 79.4082 53.9504 79.3471 54.195 79.2961C57.8449 78.4858 59.6341 77.8284 62.8914 76.0193C63.1106 75.897 63.2686 75.8358 63.3604 75.846C63.4522 75.8562 63.5694 75.9734 63.7121 76.2028C64.018 76.6971 64.1709 76.9417 64.4768 77.436C64.6756 77.7571 64.6246 78.0068 64.3136 78.1801C64.1556 78.2667 64.0792 78.3126 63.9211 78.3992C63.6255 78.5623 63.4878 78.6693 63.5235 78.7254C63.6968 78.8528 63.7784 78.919 63.9517 79.0464C65.5319 80.2491 66.3628 80.8199 68.096 81.8799C68.5395 82.1754 68.8606 82.471 69.0492 82.7615C70.1758 84.4738 70.7365 85.3299 71.8631 87.0422C72.1791 87.5264 72.327 87.878 72.2811 88.0666C72.2352 88.2347 71.8784 88.5303 71.2259 88.9023C69.7833 89.7279 69.0441 90.1101 67.5302 90.8032C66.8318 91.1242 66.3883 91.2415 66.2252 91.1803C66.0366 91.109 65.8174 90.7981 65.5778 90.2783C64.8693 88.7189 64.5124 87.9392 63.8039 86.3848C63.5439 85.8141 63.4216 85.4879 63.4369 85.4064C63.4573 85.2688 63.7376 85.0547 64.2474 84.8101C64.6093 84.6369 64.7724 84.4075 64.6654 84.2648C64.645 84.2343 64.5736 84.1578 64.487 84.061C64.4258 83.9897 64.3442 83.9081 64.2627 83.8113C64.1811 83.7145 64.0843 83.5922 63.9772 83.4342C62.7283 82.2468 62.1268 81.6301 60.985 80.3765Z" fill="#EFB515"/>
<path d="M78.2451 83.9082C76.6955 85.2587 75.0388 85.7377 73.4891 85.3912C72.1077 85.0803 70.9505 84.163 69.9769 82.7412C68.6516 80.8097 68.0195 78.6694 67.7799 76.4169C67.5199 73.9911 67.8869 72.3349 69.0747 71.1679C70.2522 70.011 71.9395 69.6492 74.4067 69.8785C76.6547 70.0875 78.816 70.6888 80.7735 72.0291C82.2008 73.0025 83.098 74.1797 83.3936 75.5811C83.725 77.1558 83.2152 78.8426 81.8083 80.4071C80.4625 81.9003 79.7489 82.5985 78.2451 83.9082ZM74.7839 73.8026C74.4169 73.5019 74.0244 73.2624 73.6522 73.0891C73.2801 72.9158 72.9284 72.8037 72.597 72.7579C72.2657 72.712 71.965 72.7171 71.6948 72.7833C71.4246 72.8496 71.2003 72.9668 71.0219 73.1401C70.8435 73.3184 70.7212 73.5376 70.6549 73.8026C70.5886 74.0676 70.5784 74.3631 70.6243 74.6944C70.6702 75.0256 70.7823 75.3722 70.9556 75.7391C71.129 76.106 71.3685 76.478 71.6795 76.85C72.2045 77.482 72.7958 77.8387 73.4636 77.8693C74.0804 77.8999 74.6361 77.6807 75.0999 77.2221C75.5638 76.7685 75.7932 76.213 75.7728 75.6015C75.7473 74.939 75.3956 74.3071 74.7839 73.8026Z" fill="#EFB515"/>
<path d="M79.9732 48.7601C80.3454 48.7601 80.5289 48.9895 80.5238 49.4379C80.5085 50.4775 80.483 50.9871 80.4065 51.986C80.3709 52.4701 80.381 52.7096 80.4422 52.7147C80.4269 52.7147 80.6104 52.6434 80.9826 52.5007C82.8228 51.7159 83.7352 51.247 85.5245 50.1667C86.0087 49.9068 86.4216 49.7743 86.7632 49.7845C88.7767 49.8354 89.786 49.8609 91.7995 49.9119C92.3704 49.9271 92.7375 50.0342 92.8649 50.2227C92.9821 50.4011 93.028 51.0075 92.977 51.9809C92.8547 54.2843 92.7375 55.4004 92.401 57.551C92.2532 58.4785 92.0952 58.9983 91.9473 59.1155C91.7791 59.2531 91.407 59.2531 90.8514 59.1206C89.1947 58.7333 88.3689 58.5396 86.7173 58.1523C86.1107 58.0096 85.7793 57.9026 85.7233 57.8313C85.6264 57.714 85.6213 57.2962 85.7182 56.6082C85.8609 55.6144 85.6621 55.0284 85.1014 54.9417C84.9179 54.9112 84.7496 54.9214 84.5967 54.9723C83.4498 55.2169 82.8737 55.324 81.7268 55.5023C81.2018 55.589 80.9367 55.6399 80.9316 55.6756C80.9214 55.7265 81.1559 55.9049 81.6249 56.2209C83.098 57.3522 83.8219 57.9536 85.2237 59.2327C86.3044 60.2366 86.7581 61.0316 86.6204 61.5361C86.4726 62.0712 85.6825 62.4687 84.2654 62.6318C82.4608 62.8458 81.5637 62.9019 79.7795 62.9274C79.2188 62.9376 78.9334 62.9478 78.9232 62.9732C78.913 62.9987 79.1118 63.1924 79.5094 63.5542C80.3963 64.3339 80.8347 64.7365 81.6962 65.557C81.8033 65.6793 81.9409 65.7812 82.1091 65.8628C82.6291 66.1125 83.0776 65.8118 83.4243 64.9556C83.6588 64.3798 83.8576 64.0638 84.0105 64.0332C84.0921 64.0129 84.4234 64.1148 85.0045 64.3543C86.5898 65.0015 87.38 65.3226 88.9653 65.9647C89.5005 66.1838 89.8217 66.3979 89.8879 66.5966C89.9491 66.7801 89.8319 67.2897 89.5158 68.0592C88.7716 69.8836 88.3587 70.7601 87.4462 72.4368C87.0537 73.1604 86.7581 73.5375 86.5898 73.5834C86.391 73.6395 86.0393 73.507 85.5499 73.1961C83.8117 72.1055 82.9451 71.5551 81.2068 70.4646C80.9112 70.276 80.6155 69.9601 80.3148 69.5116C79.2545 67.7687 78.6887 66.9329 77.4857 65.3379C77.2359 65.027 77.1135 64.8741 77.1288 64.8792C77.0677 64.8486 76.9504 65.0168 76.7669 65.3786C76.3846 66.1227 76.1858 66.4794 75.7627 67.1827C75.569 67.5037 75.3141 67.5547 74.9981 67.3457C74.5138 67.0247 74.2691 66.8667 73.7798 66.5456C73.5555 66.3979 73.4382 66.2755 73.4331 66.1838C73.428 66.0921 73.4994 65.929 73.637 65.6997C74.6667 63.9772 75.1204 63.0497 75.8697 61.0673C76.038 60.6239 76.3591 60.3844 76.8587 60.3335C78.3981 60.1449 79.1678 60.0073 80.7175 59.6353C79.6062 58.4224 79.0302 57.8465 77.8476 56.7662C77.4602 56.4247 77.3174 56.017 77.4092 55.5125C77.8221 53.26 77.9444 52.0675 77.9954 49.5602C78.0005 49.2239 78.0311 49.0098 78.0821 48.913C78.133 48.8162 78.2962 48.7652 78.5561 48.7652C79.1169 48.7601 79.4023 48.7601 79.9732 48.7601Z" fill="#EFB515"/>
<path fill-rule="evenodd" clip-rule="evenodd" d="M42.2553 46.3813L22.1568 35.6292C20.6749 38.9846 19.8881 42.6424 19.8881 46.3813L42.2553 46.3813Z" fill="#EFB515"/>
<path fill-rule="evenodd" clip-rule="evenodd" d="M50.7866 46.3927L70.8851 35.6407C72.367 38.996 73.1538 42.6538 73.1538 46.3927L50.7866 46.3927Z" fill="#EFB515"/>
<path fill-rule="evenodd" clip-rule="evenodd" d="M34.9593 22.4013C32.2855 23.6881 29.821 25.4249 27.6829 27.563C26.5129 28.733 25.4631 30.0007 24.5414 31.347L43.6707 46.3812H45.4808L34.9593 22.4013Z" fill="#EFB515"/>
<path fill-rule="evenodd" clip-rule="evenodd" d="M47.5048 46.3812L58.0292 22.3948C60.7081 23.6823 63.1773 25.4213 65.3191 27.563C66.4997 28.7436 67.558 30.0238 68.4857 31.3837L49.4031 46.3812H47.5048Z" fill="#EFB515"/>
<path fill-rule="evenodd" clip-rule="evenodd" d="M39.1024 20.8172C41.486 20.1273 43.9748 19.7682 46.5007 19.7682C48.7241 19.7682 50.9188 20.0464 53.0383 20.5836L47.0808 46.3811H46.5007H46.0201L39.1024 20.8172Z" fill="#EFB515"/>
<path fill-rule="evenodd" clip-rule="evenodd" d="M93 46.5C93 40.3935 91.7972 34.3469 89.4604 28.7052C87.1236 23.0636 83.6984 17.9375 79.3805 13.6195C75.0625 9.30161 69.9364 5.87644 64.2948 3.5396C58.6531 1.20276 52.6065 0 46.5 0C40.3935 0 34.3469 1.20276 28.7052 3.5396C23.0636 5.87645 17.9375 9.30161 13.6195 13.6195C9.30161 17.9375 5.87644 23.0636 3.5396 28.7052C1.20276 34.3469 0 40.3935 0 46.5L6.38189 46.5C7.90395 21.7904 25.7503 7.14848 44.4431 6.03174C53.8767 5.46816 63.5181 8.35111 71.3444 15.1042C79.0625 21.7639 84.9496 32.1287 87.1869 46.5L93 46.5ZM84.9502 46.5L78.0929 46.5C78.0929 38.121 74.7644 30.0852 68.8395 24.1603C62.9147 18.2355 54.8789 14.9069 46.4999 14.9069C38.1209 14.9069 30.085 18.2355 24.1602 24.1603C18.2353 30.0852 14.9068 38.121 14.9068 46.5L8.59549 46.5C10.1044 23.0086 27.0097 9.28642 44.5748 8.23705C53.466 7.70587 62.5341 10.42 69.9012 16.7768C77.1013 22.9896 82.7414 32.7395 84.9502 46.5Z" fill="#EFB515"/>
</svg>
